<svg width="20" height="22" viewBox="0 0 20 22" fill="none" xmlns="http://www.w3.org/2000/svg">
<g clip-path="url(#clip0_2_318)">
<path d="M2.87504 21.3333H17.125C17.8473 21.3333 18.4653 21.0903 18.9792 20.6042C19.4931 20.1181 19.7639 19.5 19.7917 18.75V18.6667C19.7917 18 19.6112 17.375 19.25 16.7917L12.6667 8V1.79167H13.5417C13.7639 1.79167 13.9723 1.69444 14.1667 1.5C14.3612 1.30556 14.4584 1.09722 14.4584 0.875C14.4584 0.652778 14.3612 0.451389 14.1667 0.270833C13.9723 0.0902778 13.7639 0 13.5417 0H6.45837C6.23615 0 6.02782 0.0902778 5.83337 0.270833C5.63893 0.451389 5.54171 0.652778 5.54171 0.875C5.54171 1.09722 5.63893 1.30556 5.83337 1.5C6.02782 1.69444 6.23615 1.79167 6.45837 1.79167H7.33337V7.91667L0.833374 16.7083C0.472263 17.2917 0.291707 17.8889 0.291707 18.5L0.208374 18.6667C0.236152 19.4167 0.51393 20.0486 1.04171 20.5625C1.56949 21.0764 2.1806 21.3333 2.87504 21.3333ZM7.33337 10.9167L7.79171 10.4167C8.45837 9.47222 8.90282 8.40278 9.12504 7.20833V1.79167H10.875V7.125C11.125 8.43056 11.5695 9.48611 12.2084 10.2917L12.6667 10.8333L14.4584 13.25H5.54171L7.33337 10.9167ZM2.25004 17.7917L4.66671 14.5V15.125H15.7917L17.75 17.7917C17.8056 17.8472 17.8889 18.1111 18 18.5833C18 18.8333 17.9098 19.0556 17.7292 19.25C17.5487 19.4444 17.3473 19.5417 17.125 19.5417H2.87504C2.65282 19.5417 2.45143 19.4444 2.27087 19.25C2.09032 19.0556 2.00004 18.8333 2.00004 18.5833C2.00004 18.2222 2.08337 17.9583 2.25004 17.7917Z" fill="#09477D"/>
</g>
<defs>
<clipPath id="clip0_2_318">
<rect width="20" height="21.3333" fill="white"/>
</clipPath>
</defs>
</svg>
