<svg width="17" height="17" viewBox="0 0 17 17" fill="none" xmlns="http://www.w3.org/2000/svg">
<path d="M1.11049 10.6915L0.160492 14.7915C0.12772 14.9414 0.128844 15.0967 0.16378 15.2461C0.198717 15.3955 0.266584 15.5352 0.362424 15.655C0.458264 15.7748 0.579655 15.8716 0.71773 15.9385C0.855806 16.0054 1.00708 16.0406 1.16049 16.0415C1.23198 16.0487 1.30401 16.0487 1.37549 16.0415L5.50049 15.0915L13.4205 7.2015L9.00049 2.7915L1.11049 10.6915Z" fill="#AAAAAA"/>
<path d="M15.9094 3.25129L12.9594 0.301294C12.7654 0.108326 12.503 0 12.2294 0C11.9558 0 11.6933 0.108326 11.4994 0.301294L9.85938 1.94129L14.2744 6.35629L15.9144 4.71629C16.0104 4.61983 16.0864 4.50539 16.1381 4.37953C16.1898 4.25366 16.2161 4.11883 16.2157 3.98276C16.2152 3.84668 16.1879 3.71204 16.1354 3.58653C16.0828 3.46101 16.006 3.3471 15.9094 3.25129Z" fill="#AAAAAA"/>
</svg>
