<svg width="24" height="24" viewBox="0 0 24 24" fill="none" xmlns="http://www.w3.org/2000/svg">
<path d="M18.88 10.9C18.7525 10.7908 18.5885 10.7337 18.4207 10.7402C18.2529 10.7467 18.0937 10.8162 17.975 10.935C17.8563 11.0537 17.7867 11.2128 17.7802 11.3806C17.7738 11.5484 17.8308 11.7125 17.94 11.84L20.1067 14H12C11.8232 14 11.6537 14.0702 11.5286 14.1953C11.4036 14.3203 11.3334 14.4899 11.3334 14.6667C11.3334 14.8435 11.4036 15.013 11.5286 15.1381C11.6537 15.2631 11.8232 15.3333 12 15.3333H20.1267L17.94 17.52C17.8703 17.5798 17.8136 17.6533 17.7736 17.736C17.7335 17.8187 17.7111 17.9088 17.7075 18.0006C17.704 18.0924 17.7194 18.184 17.7529 18.2695C17.7865 18.3551 17.8373 18.4328 17.9023 18.4978C17.9672 18.5627 18.0449 18.6136 18.1305 18.6471C18.216 18.6806 18.3076 18.6961 18.3994 18.6925C18.4912 18.689 18.5813 18.6665 18.664 18.6265C18.7467 18.5865 18.8203 18.5298 18.88 18.46L22.6667 14.6667L18.88 10.9Z" fill="#09477D"/>
<path d="M17.3333 8.22667C16.8176 7.90005 16.3658 7.4821 16 6.99334V9.58667H17.3333V8.22667Z" fill="#09477D"/>
<path d="M3.99996 9.07333H9.07329V4H15C15.0017 3.54916 15.0645 3.10064 15.1866 2.66666H7.24663L2.66663 7.24666V20C2.66663 20.3536 2.8071 20.6928 3.05715 20.9428C3.3072 21.1929 3.64634 21.3333 3.99996 21.3333H16C16.3536 21.3333 16.6927 21.1929 16.9428 20.9428C17.1928 20.6928 17.3333 20.3536 17.3333 20H3.99996V9.07333ZM3.99996 7.79333L7.79329 4H7.99996V8H3.99996V7.79333Z" fill="#09477D"/>
<path d="M20 7.33333C21.8409 7.33333 23.3333 5.84095 23.3333 4C23.3333 2.15905 21.8409 0.666668 20 0.666668C18.159 0.666668 16.6666 2.15905 16.6666 4C16.6666 5.84095 18.159 7.33333 20 7.33333Z" fill="#09477D"/>
</svg>
