<svg width="20" height="20" viewBox="0 0 20 20" fill="none" xmlns="http://www.w3.org/2000/svg">
<path d="M19.4629 8.69904C19.4623 8.69858 19.4618 8.69797 19.4614 8.69751L11.3021 0.539398C10.9543 0.191498 10.492 0 10.0001 0C9.50827 0 9.04589 0.191498 8.69795 0.539398L0.542983 8.69339C0.540236 8.69614 0.537337 8.69904 0.534742 8.70178C-0.179441 9.42001 -0.17822 10.5853 0.538252 11.3017C0.865586 11.6292 1.29776 11.8187 1.75999 11.8387C1.77892 11.8405 1.79784 11.8414 1.81692 11.8414H2.14196V17.8452C2.14196 19.0334 3.10886 20 4.29718 20H7.48933C7.813 20 8.07533 19.7375 8.07533 19.4141V14.707C8.07533 14.1649 8.51651 13.7239 9.0587 13.7239H10.9415C11.4837 13.7239 11.9247 14.1649 11.9247 14.707V19.4141C11.9247 19.7375 12.1871 20 12.5107 20H15.7029C16.8914 20 17.8581 19.0334 17.8581 17.8452V11.8414H18.1597C18.6513 11.8414 19.1137 11.6499 19.4618 11.3019C20.1791 10.5844 20.1794 9.41696 19.4629 8.69904ZM18.633 10.4733C18.5065 10.5998 18.3384 10.6696 18.1597 10.6696H17.2721C16.9484 10.6696 16.6861 10.9319 16.6861 11.2555V17.8452C16.6861 18.3871 16.2451 18.8281 15.7029 18.8281H13.0967V14.707C13.0967 13.5188 12.13 12.552 10.9415 12.552H9.0587C7.87023 12.552 6.90334 13.5188 6.90334 14.707V18.8281H4.29718C3.75513 18.8281 3.31395 18.3871 3.31395 17.8452V11.2555C3.31395 10.9319 3.05163 10.6696 2.72796 10.6696H1.85568C1.84652 10.6689 1.83752 10.6685 1.82821 10.6683C1.65363 10.6653 1.48989 10.596 1.36719 10.4732C1.10624 10.2122 1.10624 9.7876 1.36719 9.52652C1.36735 9.52652 1.36735 9.52637 1.3675 9.52621L1.36796 9.52576L9.52689 1.36795C9.65325 1.24146 9.82126 1.17188 10.0001 1.17188C10.1788 1.17188 10.3468 1.24146 10.4733 1.36795L18.6304 9.52408C18.6317 9.5253 18.633 9.52652 18.6343 9.52774C18.8938 9.78912 18.8934 10.2129 18.633 10.4733Z" fill="#09477D"/>
</svg>
