<svg width="24" height="24" viewBox="0 0 24 24" fill="none" xmlns="http://www.w3.org/2000/svg">
<path d="M19.1249 13.5135V12C19.1249 11.7929 18.9571 11.625 18.7499 11.625H12.375V10.4865C15.0955 10.2936 17.25 8.01876 17.25 5.24997C17.25 2.35515 14.8948 0 12 0C9.10508 0 6.74998 2.35515 6.74998 5.25002C6.74998 8.01881 8.90448 10.2936 11.625 10.4866V11.625H5.24997C5.04285 11.625 4.875 11.7929 4.875 12V13.5136C2.1545 13.7065 0 15.9813 0 18.75C0 21.6449 2.35515 24 5.24997 24C8.14484 24 10.5 21.6449 10.5 18.75C10.5 15.9812 8.34549 13.7065 5.62499 13.5136V12.375H18.375V13.5135C15.6545 13.7065 13.5 15.9812 13.5 18.75C13.5 21.6449 15.8552 24 18.75 24C21.6449 24 24 21.6449 24 18.75C24 15.9812 21.8455 13.7065 19.1249 13.5135ZM7.87498 22.4028C7.13564 22.9356 6.22888 23.25 5.24997 23.25C4.27106 23.25 3.3643 22.9356 2.62496 22.4028V21.375C2.62496 20.4294 3.13498 19.5563 3.95742 19.09C4.32346 19.3479 4.76917 19.5 5.24992 19.5C5.73072 19.5 6.17643 19.3479 6.54247 19.09C7.36491 19.5563 7.87498 20.4294 7.87498 21.375V22.4028ZM3.74996 17.25C3.74996 16.4229 4.42288 15.75 5.24997 15.75C6.07706 15.75 6.74998 16.4229 6.74998 17.25C6.74998 18.0771 6.07706 18.75 5.24997 18.75C4.42288 18.75 3.74996 18.0771 3.74996 17.25ZM9.74996 18.75C9.74996 19.8886 9.3247 20.9296 8.62496 21.723V21.375C8.62496 20.2284 8.04185 19.1645 7.08857 18.5445C7.34731 18.1781 7.49996 17.7317 7.49996 17.25C7.49996 16.0094 6.49061 15 5.24997 15C4.00933 15 2.99998 16.0094 2.99998 17.25C2.99998 17.7317 3.15263 18.1781 3.41136 18.5445C2.45809 19.1646 1.87503 20.2284 1.87503 21.375V21.723C1.17524 20.9295 0.749982 19.8886 0.749982 18.75C0.749982 16.2688 2.76869 14.25 5.24997 14.25C7.73125 14.25 9.74996 16.2687 9.74996 18.75ZM8.62496 8.22303C7.92523 7.42957 7.49991 6.38859 7.49991 5.25002C7.49991 2.76874 9.51862 0.750031 12 0.750031C14.4813 0.750031 16.5 2.76869 16.5 5.25002C16.5 6.38864 16.0747 7.42962 15.3749 8.22303V7.87503C15.3749 6.72841 14.7918 5.66455 13.8386 5.04452C14.0973 4.67813 14.2499 4.23169 14.2499 3.75001C14.2499 2.50937 13.2406 1.50001 12 1.50001C10.7593 1.50001 9.74996 2.50937 9.74996 3.75001C9.74996 4.23169 9.90261 4.67808 10.1613 5.04452C9.20807 5.66459 8.62496 6.72841 8.62496 7.87503V8.22303ZM13.5 3.75001C13.5 4.5771 12.8271 5.25002 12 5.25002C11.1729 5.25002 10.4999 4.57715 10.4999 3.75001C10.4999 2.92296 11.1728 2.25004 12 2.25004C12.827 2.25004 13.5 2.92296 13.5 3.75001ZM9.37494 8.90281V7.87498C9.37494 6.9294 9.88496 6.05633 10.7074 5.58998C11.0734 5.84789 11.5191 6 12 6C12.4808 6 12.9265 5.84789 13.2925 5.58998C14.1149 6.05628 14.625 6.92945 14.625 7.87498V8.90281C13.8856 9.43563 12.9789 9.75001 12 9.75001C11.0211 9.75001 10.1143 9.43563 9.37494 8.90281ZM21.375 22.4028C20.6356 22.9356 19.7289 23.25 18.75 23.25C17.7711 23.25 16.8643 22.9356 16.1249 22.4028V21.375C16.1249 20.4294 16.6349 19.5563 17.4574 19.09C17.8235 19.3479 18.2692 19.5 18.75 19.5C19.2308 19.5 19.6765 19.3479 20.0425 19.09C20.865 19.5563 21.375 20.4294 21.375 21.375V22.4028ZM17.25 17.25C17.25 16.4229 17.9228 15.75 18.75 15.75C19.5771 15.75 20.25 16.4229 20.25 17.25C20.2499 18.0771 19.5771 18.75 18.75 18.75C17.9229 18.75 17.25 18.0771 17.25 17.25ZM22.1249 21.7229V21.375C22.1249 20.2283 21.5418 19.1645 20.5885 18.5445C20.8473 18.1781 20.9999 17.7317 20.9999 17.25C20.9999 16.0093 19.9906 14.9999 18.7499 14.9999C17.5093 14.9999 16.4999 16.0093 16.4999 17.25C16.4999 17.7316 16.6526 18.178 16.9113 18.5444C15.9581 19.1645 15.3749 20.2283 15.3749 21.375V21.7229C14.6752 20.9295 14.2499 19.8886 14.2499 18.75C14.2499 16.2687 16.2687 14.25 18.75 14.25C21.2313 14.25 23.25 16.2687 23.25 18.75C23.25 19.8886 22.8247 20.9295 22.1249 21.7229Z" fill="#09477D"/>
</svg>
